<svg width="128" height="128" viewBox="0 0 128 128" fill="none" xmlns="http://www.w3.org/2000/svg">
<path d="M78 67.82L55.17 71.79C55.17 71.79 47.57 91.15 47.1 92.46C46.63 93.77 46.65 95.84 48.72 95.84C51.35 95.84 64.7 95.77 64.7 95.77C64.7 95.77 61.46 111.4 61.27 112.8C61.08 114.2 62.58 115.43 63.9 114.02C65.22 112.61 83.41 89.23 84.2 88.09C85.61 86.05 84.25 84.17 82.65 84.08C81.05 83.99 70.33 84.22 70.33 84.22L78 67.82Z" fill="#FECA18"/>
<path d="M71.92 70.54C71.92 70.54 66.83 81.8 66.64 82.44C66.08 84.34 68.54 85.11 69.24 83.57C69.94 82.02 76 69.49 76 69.49L71.92 70.54ZM49.99 92.17C51.33 92.13 63.09 92.1 64.07 92.03C65.9 91.89 66.18 94.42 64.07 94.42C61.88 94.42 50.34 94.46 49.64 94.49C48.02 94.57 47.8 92.24 49.99 92.17Z" fill="#FDB900"/>
<path d="M59.42 69.01C59.42 69.01 53.42 84.07 53.08 85.2C51.67 89.92 56.74 89.78 58.08 87.1C58.74 85.77 65.19 72.11 65.47 69.64C65.75 67.18 59.42 69.01 59.42 69.01ZM61.01 86.57C60.15 85.98 59.11 86.5 58.48 87.49C57.85 88.48 56.93 90.09 58.34 90.94C59.61 91.7 60.73 90.17 61.23 89.46C61.72 88.75 62.35 87.48 61.01 86.57ZM71.34 89.8C69.05 89.31 68.31 91.21 67.82 93.46C67.33 95.71 65.49 102.99 65.15 104.79C64.66 107.32 66.98 107.68 67.97 105.35C68.71 103.61 71.92 95.76 72.33 94.51C72.96 92.62 73.66 90.3 71.34 89.8Z" fill="#FFE36A"/>
<path d="M107.92 46.26C107.92 46.26 110.52 11.28 80.61 6.84C53.72 2.85 48.44 28.38 48.44 28.38C48.44 28.38 38.28 26.01 30.98 32.53C23.73 39.01 24.29 46.68 24.29 46.68C24.29 46.68 6.40998 43.86 4.57998 59.21C2.86998 73.55 24.01 69.98 24.01 69.98L124.39 62.59C124.39 62.59 126.77 55.05 119.18 49.36C114.67 45.97 107.92 46.26 107.92 46.26Z" fill="#E4EAEE"/>
<path d="M53.81 54.19C54.65 53.91 59.44 58 73.24 58.13C92.2 58.32 106.56 47.15 106.56 47.15C106.56 47.15 107.04 50.55 105.53 52.97C103.65 55.97 100.74 56.54 100.74 56.54C100.74 56.54 106 60.2 113.22 59.64C119.73 59.13 124.44 56.92 124.44 56.92C124.44 56.92 125.07 60.13 124.72 63.26C124.02 69.5 120.36 72.04 116.32 72.5C113.35 72.84 87.98 72.96 77.56 73.06C68.17 73.15 20.32 74.35 15.43 73.81C10.36 73.25 6.51 70.2 5.11 65.83C4.04 62.52 4.55 60.39 4.55 60.39C4.55 60.39 13.87 62.86 19.1 62.27C25.67 61.52 30.08 57.39 30.08 57.39C30.08 57.39 34.02 59.64 42.75 58.89C50.26 58.23 53.81 54.19 53.81 54.19Z" fill="url(#paint0_radial_202_14)"/>
<path d="M103.9 74.2C102.88 73.63 99.25 77.02 97.21 79.06C95.96 80.31 91.98 83.58 91.44 86.73C90.1 94.47 98.97 96.23 102.49 92.64C105.15 89.93 104.67 84.64 104.67 82.86C104.68 80.39 105.17 74.9 103.9 74.2ZM31.02 78.36C30.05 77.8 26.57 81.08 24.61 83.07C23.41 84.28 19.6 87.45 19.06 90.53C17.74 98.08 26.19 99.85 29.57 96.37C32.12 93.74 31.7 88.57 31.71 86.83C31.72 84.42 32.22 79.06 31.02 78.36ZM47.15 100.74C46.06 100.33 42.39 103.67 40.35 105.71C39.1 106.96 35.4 110.16 34.86 113.31C33.52 121.05 42.11 122.88 45.63 119.29C48.29 116.58 47.85 111.29 47.81 109.51C47.71 104.87 47.9 101.02 47.15 100.74Z" fill="#52C0EE"/>
<path d="M97.78 84.22C96.38 83.49 94.68 83.8 93.6 86.05C92.52 88.3 93.41 90.09 94.54 90.6C95.84 91.2 97.45 90.65 98.53 88.82C99.61 86.99 98.95 84.83 97.78 84.22ZM40.01 110.93C38.57 110.43 36.99 110.96 36.27 113.27C35.55 115.58 36.66 117.16 37.81 117.5C39.14 117.89 40.6 117.14 41.38 115.23C42.15 113.32 41.21 111.35 40.01 110.93ZM24.07 87.97C22.55 87.55 20.95 88.2 20.37 90.63C19.79 93.06 21.03 94.62 22.24 94.88C23.64 95.19 25.09 94.32 25.77 92.3C26.44 90.3 25.35 88.32 24.07 87.97Z" fill="#B2E6FE"/>
<defs>
<radialGradient id="paint0_radial_202_14" cx="0" cy="0" r="1" gradientUnits="userSpaceOnUse" gradientTransform="translate(65.8097 75.2763) rotate(-88.3497) scale(29.4344 44.0958)">
<stop offset="0.193" stop-color="#FFE366"/>
<stop offset="0.331" stop-color="#EDDD82"/>
<stop offset="0.571" stop-color="#D0D4AD"/>
<stop offset="0.759" stop-color="#BFCFC7"/>
<stop offset="0.87" stop-color="#B8CDD1"/>
</radialGradient>
</defs>
</svg>
