<svg width="36" height="36" viewBox="0 0 36 36" fill="none" xmlns="http://www.w3.org/2000/svg">
<g clip-path="url(#clip0_202_9)">
<path d="M13 2C13 2 13 0 15 0C17 0 17 2 17 2V4C17 4 17 6 15 6C13 6 13 4 13 4V2ZM4 13C4 13 6 13 6 15C6 17 4 17 4 17H2C2 17 0 17 0 15C0 13 2 13 2 13H4ZM7.872 6.043C7.872 6.043 9.286 7.457 7.872 8.871C6.458 10.285 5.044 8.871 5.044 8.871L3.629 7.458C3.629 7.458 2.215 6.044 3.629 4.629C5.044 3.215 6.458 4.629 6.458 4.629L7.872 6.043ZM24.957 8.871C24.957 8.871 23.543 10.285 22.129 8.871C20.715 7.457 22.129 6.043 22.129 6.043L23.543 4.629C23.543 4.629 24.957 3.215 26.371 4.629C27.785 6.043 26.371 7.457 26.371 7.457L24.957 8.871Z" fill="#FFAC33"/>
<path d="M15 23C19.4183 23 23 19.4183 23 15C23 10.5817 19.4183 7 15 7C10.5817 7 7 10.5817 7 15C7 19.4183 10.5817 23 15 23Z" fill="#FFAC33"/>
<path d="M28.223 12.8C27.42 12.8 26.648 12.919 25.919 13.14C25.057 10.731 22.718 9 19.958 9C16.999 9 14.521 10.991 13.835 13.675C13.0766 13.1084 12.1557 12.8015 11.209 12.8C8.792 12.8 6.834 14.714 6.834 17.075C6.834 17.648 6.954 18.194 7.163 18.694C6.73957 18.5716 6.3017 18.5064 5.861 18.5C3.176 18.5 1 20.626 1 23.25C1 25.874 3.176 28 5.861 28H28.222C32.518 28 36 24.598 36 20.4C36 16.202 32.518 12.8 28.223 12.8Z" fill="#E1E8ED"/>
<path d="M11.999 33.961L11.886 30.54L9.017 32.248C8.6935 32.4212 8.42499 32.6815 8.24188 32.9994C8.05877 33.3174 7.9684 33.6803 7.981 34.047C8.00185 34.5797 8.23112 35.0829 8.61943 35.4482C9.00773 35.8135 9.524 36.0117 10.057 36C10.3191 35.9959 10.5777 35.9396 10.8178 35.8345C11.0579 35.7294 11.2747 35.5775 11.4555 35.3877C11.6363 35.1979 11.7774 34.9739 11.8707 34.729C11.9641 34.4841 12.0077 34.223 11.999 33.961ZM5.02 32.421L4.906 29L2.037 30.708C1.71343 30.8811 1.44484 31.1414 1.26172 31.4593C1.0786 31.7773 0.988278 32.1403 1.001 32.507C1.02185 33.0397 1.25112 33.5429 1.63943 33.9082C2.02773 34.2735 2.544 34.4717 3.077 34.46C3.33917 34.456 3.59792 34.3999 3.83815 34.2948C4.07837 34.1897 4.29526 34.0378 4.47614 33.848C4.65702 33.6582 4.79827 33.4342 4.89165 33.1892C4.98503 32.9442 5.02866 32.6831 5.02 32.421ZM19.02 32.961L18.907 29.54L16.038 31.248C15.7145 31.4212 15.446 31.6815 15.2629 31.9994C15.0798 32.3174 14.9894 32.6803 15.002 33.047C15.0228 33.5797 15.2521 34.0829 15.6404 34.4482C16.0287 34.8135 16.545 35.0117 17.078 35C17.3401 34.9959 17.5987 34.9396 17.8388 34.8345C18.0789 34.7294 18.2957 34.5775 18.4765 34.3877C18.6573 34.1979 18.7984 33.9739 18.8917 33.729C18.9851 33.4841 19.0287 33.223 19.02 32.961ZM24.998 33.961L24.885 30.54L22.016 32.248C21.6925 32.4211 21.4241 32.6814 21.2411 32.9994C21.0582 33.3174 20.9681 33.6804 20.981 34.047C21.0018 34.5797 21.2311 35.0829 21.6194 35.4482C22.0077 35.8135 22.524 36.0117 23.057 36C23.319 35.9959 23.5776 35.9396 23.8177 35.8345C24.0578 35.7293 24.2745 35.5774 24.4551 35.3876C24.6358 35.1978 24.7769 34.9739 24.8701 34.7289C24.9633 34.484 25.0068 34.2229 24.998 33.961ZM31.019 32.421L30.905 29L28.036 30.708C27.7125 30.8811 27.4441 31.1414 27.2611 31.4594C27.0782 31.7774 26.9881 32.1404 27.001 32.507C27.0216 33.0398 27.2508 33.5432 27.6392 33.9085C28.0275 34.2739 28.5439 34.4719 29.077 34.46C29.3391 34.4559 29.5977 34.3996 29.8378 34.2945C30.0779 34.1894 30.2947 34.0375 30.4755 33.8477C30.6563 33.6579 30.7974 33.4339 30.8907 33.189C30.9841 32.9441 31.0277 32.683 31.019 32.421Z" fill="#5DADEC"/>
</g>
<defs>
<clipPath id="clip0_202_9">
<rect width="36" height="36" fill="white"/>
</clipPath>
</defs>
</svg>
